<svg width="20" height="20" viewBox="0 0 20 20" fill="none" xmlns="http://www.w3.org/2000/svg">
<path d="M11.7684 8.23337C12.7442 9.2092 12.7442 10.7934 11.7684 11.7709C10.7926 12.7467 9.2084 12.7467 8.2309 11.7709C7.25507 10.795 7.25507 9.21087 8.2309 8.23337C9.2084 7.25587 10.7917 7.25587 11.7684 8.23337" stroke="#808080" stroke-width="1.8" stroke-linecap="round" stroke-linejoin="round"/>
<path fill-rule="evenodd" clip-rule="evenodd" d="M2.5 9.99996C2.5 9.45079 2.62667 8.90746 2.87167 8.40663V8.40663C4.13417 5.82579 6.92417 4.16663 10 4.16663C13.0758 4.16663 15.8658 5.82579 17.1283 8.40663V8.40663C17.3733 8.90746 17.5 9.45079 17.5 9.99996C17.5 10.5491 17.3733 11.0925 17.1283 11.5933V11.5933C15.8658 14.1741 13.0758 15.8333 10 15.8333C6.92417 15.8333 4.13417 14.1741 2.87167 11.5933V11.5933C2.62667 11.0925 2.5 10.5491 2.5 9.99996Z" stroke="#808080" stroke-width="1.8" stroke-linecap="round" stroke-linejoin="round"/>
</svg>
